<svg xmlns="http://www.w3.org/2000/svg" xmlns:xlink="http://www.w3.org/1999/xlink" width="637" zoomAndPan="magnify" viewBox="0 0 477.75 374.999991" height="500" preserveAspectRatio="xMidYMid meet" version="1.0"><defs><g/><clipPath id="04c43b015d"><path d="M 0.28125 0.0976562 L 295.78125 0.0976562 L 295.78125 249.847656 L 0.28125 249.847656 Z M 0.28125 0.0976562 " clip-rule="nonzero"/></clipPath><clipPath id="006db93d77"><path d="M 182.078125 125.097656 L 477.390625 125.097656 L 477.390625 374.847656 L 182.078125 374.847656 Z M 182.078125 125.097656 " clip-rule="nonzero"/></clipPath><clipPath id="51b0c2118b"><path d="M 182.242188 125.097656 L 477.390625 125.097656 L 477.390625 374.847656 L 182.242188 374.847656 Z M 182.242188 125.097656 " clip-rule="nonzero"/></clipPath></defs><g clip-path="url(#04c43b015d)"><path fill="#b0f4ff" d="M 256.617188 0.917969 L 38.933594 0.917969 C 17.570312 0.917969 0.28125 18.203125 0.28125 40.066406 L 0.28125 165.648438 C 0.28125 187 17.570312 204.289062 38.933594 204.289062 L 40.460938 204.289062 C 48.597656 204.289062 55.71875 208.355469 60.296875 214.964844 L 76.570312 240.386719 C 80.128906 245.46875 85.726562 249.03125 92.335938 249.03125 C 98.949219 249.03125 104.542969 245.980469 108.105469 240.386719 L 120.3125 221.066406 C 126.921875 210.390625 138.621094 204.289062 150.828125 204.289062 L 257.125 204.289062 C 278.488281 204.289062 295.78125 187 295.78125 165.648438 L 295.78125 40.066406 C 295.269531 18.203125 277.976562 0.917969 256.617188 0.917969 Z M 256.617188 0.917969 " fill-opacity="1" fill-rule="nonzero"/><path fill="#008599" d="M 256.617188 0.847656 L 38.933594 0.847656 C 17.570312 0.847656 0.28125 18.144531 0.28125 39.511719 L 0.28125 165.667969 C 0.28125 187.035156 17.570312 204.332031 38.933594 204.332031 L 40.460938 204.332031 C 48.597656 204.332031 55.71875 208.402344 60.296875 215.015625 L 76.570312 240.449219 C 80.128906 245.539062 85.726562 249.097656 92.335938 249.097656 C 98.949219 249.097656 104.542969 246.046875 108.105469 240.449219 L 120.3125 221.121094 C 126.921875 210.4375 138.621094 204.332031 150.828125 204.332031 L 257.125 204.332031 C 278.488281 204.332031 295.78125 187.035156 295.78125 165.667969 L 295.78125 39.511719 C 295.269531 18.144531 277.976562 0.847656 256.617188 0.847656 Z M 285.097656 165.667969 C 285.097656 181.441406 272.382812 194.15625 256.617188 194.15625 L 150.320312 194.15625 C 134.550781 194.15625 119.800781 202.296875 111.15625 215.523438 L 98.949219 234.855469 C 95.898438 239.941406 88.269531 239.941406 85.21875 234.855469 L 68.941406 209.417969 C 62.839844 199.753906 52.15625 194.15625 40.96875 194.15625 L 39.441406 194.15625 C 23.167969 194.15625 10.453125 181.441406 10.453125 165.667969 L 10.453125 39.511719 C 10.453125 23.738281 23.167969 11.023438 38.933594 11.023438 L 256.617188 11.023438 C 272.382812 11.023438 285.097656 23.738281 285.097656 39.511719 Z M 285.097656 165.667969 " fill-opacity="1" fill-rule="nonzero"/></g><g fill="#008599" fill-opacity="1"><g transform="translate(51.251579, 119.686083)"><g><path d="M 42.25 0.609375 C 39.113281 0.609375 36.632812 -0.46875 34.8125 -2.625 C 33 -4.789062 31.867188 -8.09375 31.421875 -12.53125 C 31.335938 -13.1875 31.242188 -14.070312 31.140625 -15.1875 C 31.046875 -16.3125 30.9375 -17.34375 30.8125 -18.28125 L 26.46875 -4.640625 C 25.78125 -2.523438 24.296875 -1.46875 22.015625 -1.46875 C 20.703125 -1.46875 19.691406 -1.800781 18.984375 -2.46875 C 18.273438 -3.144531 17.796875 -3.910156 17.546875 -4.765625 L 13.703125 -18.953125 L 10.390625 -3.484375 C 10.148438 -2.335938 9.628906 -1.425781 8.828125 -0.75 C 8.035156 -0.0820312 7.050781 0.25 5.875 0.25 C 4.488281 0.25 3.363281 -0.195312 2.5 -1.09375 C 1.644531 -2 1.21875 -3.0625 1.21875 -4.28125 C 1.21875 -4.476562 1.21875 -4.660156 1.21875 -4.828125 C 1.21875 -4.992188 1.257812 -5.175781 1.34375 -5.375 L 8.3125 -39.5 C 8.519531 -40.59375 9.050781 -41.484375 9.90625 -42.171875 C 10.757812 -42.867188 11.71875 -43.21875 12.78125 -43.21875 C 13.800781 -43.21875 14.75 -42.898438 15.625 -42.265625 C 16.5 -41.640625 17.078125 -40.816406 17.359375 -39.796875 L 22.3125 -21.828125 L 27.875 -39.5625 C 28.207031 -40.65625 28.800781 -41.519531 29.65625 -42.15625 C 30.507812 -42.789062 31.445312 -43.109375 32.46875 -43.109375 C 33.5625 -43.109375 34.535156 -42.75 35.390625 -42.03125 C 36.253906 -41.320312 36.785156 -40.394531 36.984375 -39.25 C 36.984375 -39.125 37.066406 -38.476562 37.234375 -37.3125 C 37.398438 -36.15625 37.601562 -34.722656 37.84375 -33.015625 C 38.09375 -31.304688 38.359375 -29.429688 38.640625 -27.390625 C 38.921875 -25.347656 39.191406 -23.398438 39.453125 -21.546875 C 39.722656 -19.691406 39.957031 -18.03125 40.15625 -16.5625 C 40.363281 -15.101562 40.507812 -14.085938 40.59375 -13.515625 C 40.882812 -11.722656 41.273438 -10.4375 41.765625 -9.65625 C 42.253906 -8.882812 42.84375 -8.5 43.53125 -8.5 C 44.257812 -8.5 44.941406 -8.945312 45.578125 -9.84375 C 46.210938 -10.738281 46.9375 -12.226562 47.75 -14.3125 C 48 -14.957031 48.5 -15.554688 49.25 -16.109375 C 50 -16.660156 50.882812 -16.9375 51.90625 -16.9375 C 53.207031 -16.9375 54.316406 -16.5 55.234375 -15.625 C 56.148438 -14.75 56.609375 -13.65625 56.609375 -12.34375 C 56.609375 -11.851562 56.507812 -11.304688 56.3125 -10.703125 C 55.738281 -9.234375 55.035156 -7.816406 54.203125 -6.453125 C 53.367188 -5.085938 52.367188 -3.882812 51.203125 -2.84375 C 50.046875 -1.800781 48.722656 -0.960938 47.234375 -0.328125 C 45.742188 0.296875 44.082031 0.609375 42.25 0.609375 Z M 42.25 0.609375 "/></g></g></g><g fill="#008599" fill-opacity="1"><g transform="translate(95.636457, 119.686083)"><g><path d="M 14.921875 0.3125 C 13.285156 0.3125 11.765625 0.046875 10.359375 -0.484375 C 8.953125 -1.015625 7.726562 -1.835938 6.6875 -2.953125 C 5.65625 -4.078125 4.84375 -5.535156 4.25 -7.328125 C 3.65625 -9.128906 3.359375 -11.289062 3.359375 -13.8125 C 3.359375 -17 3.445312 -19.546875 3.625 -21.453125 C 3.8125 -23.367188 4.117188 -24.847656 4.546875 -25.890625 C 4.984375 -26.929688 5.546875 -27.613281 6.234375 -27.9375 C 6.929688 -28.269531 7.769531 -28.4375 8.75 -28.4375 C 9.925781 -28.4375 10.984375 -28.015625 11.921875 -27.171875 C 12.859375 -26.335938 13.328125 -25.25 13.328125 -23.90625 C 13.328125 -23.414062 13.285156 -22.882812 13.203125 -22.3125 C 13.117188 -21.738281 13.035156 -21.078125 12.953125 -20.328125 C 12.878906 -19.578125 12.800781 -18.671875 12.71875 -17.609375 C 12.632812 -16.546875 12.59375 -15.28125 12.59375 -13.8125 C 12.59375 -12.1875 12.804688 -10.882812 13.234375 -9.90625 C 13.660156 -8.925781 14.40625 -8.4375 15.46875 -8.4375 C 16.644531 -8.4375 17.703125 -8.972656 18.640625 -10.046875 C 19.578125 -11.128906 20.457031 -12.753906 21.28125 -14.921875 C 21.519531 -15.566406 22.035156 -16.164062 22.828125 -16.71875 C 23.628906 -17.269531 24.5 -17.546875 25.4375 -17.546875 C 26.78125 -17.546875 27.898438 -17.097656 28.796875 -16.203125 C 29.691406 -15.304688 30.140625 -14.226562 30.140625 -12.96875 C 30.140625 -12.476562 30.039062 -11.925781 29.84375 -11.3125 C 29.226562 -9.71875 28.492188 -8.207031 27.640625 -6.78125 C 26.785156 -5.351562 25.753906 -4.117188 24.546875 -3.078125 C 23.347656 -2.046875 21.953125 -1.222656 20.359375 -0.609375 C 18.765625 0.00390625 16.953125 0.3125 14.921875 0.3125 Z M 9.484375 -32.53125 C 8.296875 -32.53125 7.285156 -32.925781 6.453125 -33.71875 C 5.617188 -34.507812 5.203125 -35.5 5.203125 -36.6875 C 5.203125 -37.863281 5.617188 -38.878906 6.453125 -39.734375 C 7.285156 -40.597656 8.296875 -41.03125 9.484375 -41.03125 C 10.660156 -41.03125 11.65625 -40.597656 12.46875 -39.734375 C 13.289062 -38.878906 13.703125 -37.863281 13.703125 -36.6875 C 13.703125 -35.5 13.289062 -34.507812 12.46875 -33.71875 C 11.65625 -32.925781 10.660156 -32.53125 9.484375 -32.53125 Z M 9.484375 -32.53125 "/></g></g></g><g fill="#008599" fill-opacity="1"><g transform="translate(113.549359, 119.686083)"><g><path d="M 14.921875 0.3125 C 13.128906 0.3125 11.519531 -0.015625 10.09375 -0.671875 C 8.664062 -1.328125 7.453125 -2.210938 6.453125 -3.328125 C 5.453125 -4.453125 4.6875 -5.773438 4.15625 -7.296875 C 3.625 -8.828125 3.359375 -10.472656 3.359375 -12.234375 C 3.359375 -14.347656 3.742188 -16.382812 4.515625 -18.34375 C 5.296875 -20.300781 6.398438 -22.03125 7.828125 -23.53125 C 9.253906 -25.039062 10.960938 -26.242188 12.953125 -27.140625 C 14.953125 -28.035156 17.15625 -28.484375 19.5625 -28.484375 C 21.070312 -28.484375 22.53125 -28.28125 23.9375 -27.875 C 25.34375 -27.46875 26.582031 -26.867188 27.65625 -26.078125 C 28.738281 -25.285156 29.609375 -24.316406 30.265625 -23.171875 C 30.921875 -22.023438 31.25 -20.722656 31.25 -19.265625 C 31.25 -17.835938 31.164062 -16.679688 31 -15.796875 C 30.832031 -14.921875 30.75 -13.992188 30.75 -13.015625 C 30.75 -11.835938 31.046875 -10.835938 31.640625 -10.015625 C 32.234375 -9.203125 32.957031 -8.796875 33.8125 -8.796875 C 34.945312 -8.796875 35.910156 -9.242188 36.703125 -10.140625 C 37.503906 -11.046875 38.332031 -12.640625 39.1875 -14.921875 C 39.519531 -15.734375 40.082031 -16.375 40.875 -16.84375 C 41.664062 -17.3125 42.507812 -17.546875 43.40625 -17.546875 C 44.875 -17.546875 46.003906 -17.066406 46.796875 -16.109375 C 47.597656 -15.148438 48 -14.082031 48 -12.90625 C 48 -12.289062 47.914062 -11.757812 47.75 -11.3125 C 46.40625 -7.644531 44.601562 -4.789062 42.34375 -2.75 C 40.082031 -0.707031 37.28125 0.3125 33.9375 0.3125 C 32.0625 0.3125 30.304688 -0.15625 28.671875 -1.09375 C 27.046875 -2.03125 25.84375 -3.15625 25.0625 -4.46875 C 23.84375 -3.039062 22.363281 -1.882812 20.625 -1 C 18.894531 -0.125 16.992188 0.3125 14.921875 0.3125 Z M 15.78125 -8.4375 C 16.507812 -8.4375 17.1875 -8.679688 17.8125 -9.171875 C 18.445312 -9.660156 19.007812 -10.332031 19.5 -11.1875 C 19.988281 -12.039062 20.414062 -13.046875 20.78125 -14.203125 C 21.15625 -15.367188 21.460938 -16.609375 21.703125 -17.921875 L 21.703125 -18.03125 C 21.703125 -18.363281 21.519531 -18.722656 21.15625 -19.109375 C 20.789062 -19.492188 20.195312 -19.6875 19.375 -19.6875 C 18.476562 -19.6875 17.625 -19.460938 16.8125 -19.015625 C 16 -18.566406 15.285156 -17.984375 14.671875 -17.265625 C 14.054688 -16.554688 13.566406 -15.742188 13.203125 -14.828125 C 12.835938 -13.910156 12.65625 -12.984375 12.65625 -12.046875 C 12.65625 -10.859375 12.941406 -9.957031 13.515625 -9.34375 C 14.085938 -8.738281 14.84375 -8.4375 15.78125 -8.4375 Z M 15.78125 -8.4375 "/></g></g></g><g fill="#008599" fill-opacity="1"><g transform="translate(149.314037, 119.686083)"><g><path d="M 14.984375 0.3125 C 13.148438 0.3125 11.519531 -0.0234375 10.09375 -0.703125 C 8.664062 -1.378906 7.453125 -2.304688 6.453125 -3.484375 C 5.453125 -4.671875 4.6875 -6.097656 4.15625 -7.765625 C 3.625 -9.429688 3.359375 -11.285156 3.359375 -13.328125 C 3.359375 -16.585938 3.46875 -19.207031 3.6875 -21.1875 C 3.914062 -23.164062 4.253906 -24.691406 4.703125 -25.765625 C 5.148438 -26.847656 5.738281 -27.570312 6.46875 -27.9375 C 7.207031 -28.300781 8.066406 -28.484375 9.046875 -28.484375 C 9.660156 -28.484375 10.234375 -28.359375 10.765625 -28.109375 C 11.296875 -27.867188 11.773438 -27.546875 12.203125 -27.140625 C 12.628906 -26.734375 12.960938 -26.242188 13.203125 -25.671875 C 13.453125 -25.109375 13.578125 -24.519531 13.578125 -23.90625 C 13.578125 -23.25 13.523438 -22.613281 13.421875 -22 C 13.316406 -21.394531 13.210938 -20.691406 13.109375 -19.890625 C 13.015625 -19.097656 12.914062 -18.179688 12.8125 -17.140625 C 12.707031 -16.109375 12.65625 -14.835938 12.65625 -13.328125 C 12.65625 -12.835938 12.695312 -12.328125 12.78125 -11.796875 C 12.863281 -11.265625 13.015625 -10.796875 13.234375 -10.390625 C 13.460938 -9.984375 13.75 -9.644531 14.09375 -9.375 C 14.4375 -9.113281 14.894531 -8.984375 15.46875 -8.984375 C 16.363281 -8.984375 17.195312 -9.335938 17.96875 -10.046875 C 18.75 -10.765625 19.453125 -11.734375 20.078125 -12.953125 C 20.710938 -14.179688 21.273438 -15.585938 21.765625 -17.171875 C 22.253906 -18.765625 22.640625 -20.457031 22.921875 -22.25 C 23.085938 -23.144531 23.257812 -23.96875 23.4375 -24.71875 C 23.625 -25.476562 23.898438 -26.132812 24.265625 -26.6875 C 24.640625 -27.238281 25.109375 -27.675781 25.671875 -28 C 26.242188 -28.320312 26.976562 -28.484375 27.875 -28.484375 C 29.1875 -28.484375 30.28125 -28.035156 31.15625 -27.140625 C 32.03125 -26.242188 32.46875 -25.164062 32.46875 -23.90625 C 32.46875 -23.695312 32.4375 -23.367188 32.375 -22.921875 C 32.3125 -22.472656 32.257812 -22.148438 32.21875 -21.953125 C 32.21875 -21.828125 32.1875 -21.609375 32.125 -21.296875 C 32.0625 -20.992188 32.007812 -20.554688 31.96875 -19.984375 C 31.9375 -19.421875 31.898438 -18.671875 31.859375 -17.734375 C 31.816406 -16.796875 31.796875 -15.632812 31.796875 -14.25 C 31.796875 -12.25 32.078125 -10.867188 32.640625 -10.109375 C 33.210938 -9.359375 33.96875 -8.984375 34.90625 -8.984375 C 35.84375 -8.984375 36.597656 -9.207031 37.171875 -9.65625 C 37.742188 -10.101562 38.210938 -10.671875 38.578125 -11.359375 C 38.941406 -12.054688 39.273438 -12.789062 39.578125 -13.5625 C 39.890625 -14.34375 40.25 -15.078125 40.65625 -15.765625 C 41.0625 -16.460938 41.5625 -17.035156 42.15625 -17.484375 C 42.75 -17.929688 43.554688 -18.15625 44.578125 -18.15625 C 46.078125 -18.15625 47.234375 -17.675781 48.046875 -16.71875 C 48.867188 -15.757812 49.28125 -14.710938 49.28125 -13.578125 C 49.28125 -13.003906 49.175781 -12.453125 48.96875 -11.921875 C 48.363281 -10.296875 47.609375 -8.75 46.703125 -7.28125 C 45.804688 -5.8125 44.757812 -4.515625 43.5625 -3.390625 C 42.363281 -2.273438 41.019531 -1.378906 39.53125 -0.703125 C 38.039062 -0.0234375 36.398438 0.3125 34.609375 0.3125 C 32.566406 0.3125 30.679688 -0.15625 28.953125 -1.09375 C 27.222656 -2.03125 25.828125 -3.421875 24.765625 -5.265625 C 23.867188 -4.117188 22.976562 -3.1875 22.09375 -2.46875 C 21.21875 -1.757812 20.375 -1.203125 19.5625 -0.796875 C 18.75 -0.390625 17.953125 -0.101562 17.171875 0.0625 C 16.398438 0.226562 15.671875 0.3125 14.984375 0.3125 Z M 14.984375 0.3125 "/></g></g></g><g fill="#008599" fill-opacity="1"><g transform="translate(186.362576, 119.686083)"><g/></g></g><g fill="#008599" fill-opacity="1"><g transform="translate(201.035266, 119.686083)"><g><path d="M 7.09375 0.609375 C 5.832031 0.609375 4.742188 0.171875 3.828125 -0.703125 C 2.910156 -1.578125 2.453125 -2.664062 2.453125 -3.96875 C 2.453125 -5.238281 2.910156 -6.320312 3.828125 -7.21875 C 4.742188 -8.113281 5.832031 -8.5625 7.09375 -8.5625 C 8.351562 -8.5625 9.429688 -8.113281 10.328125 -7.21875 C 11.222656 -6.320312 11.671875 -5.238281 11.671875 -3.96875 C 11.671875 -2.664062 11.222656 -1.578125 10.328125 -0.703125 C 9.429688 0.171875 8.351562 0.609375 7.09375 0.609375 Z M 7.09375 -18.953125 C 5.832031 -18.953125 4.742188 -19.390625 3.828125 -20.265625 C 2.910156 -21.140625 2.453125 -22.234375 2.453125 -23.546875 C 2.453125 -24.804688 2.910156 -25.882812 3.828125 -26.78125 C 4.742188 -27.675781 5.832031 -28.125 7.09375 -28.125 C 8.351562 -28.125 9.429688 -27.675781 10.328125 -26.78125 C 11.222656 -25.882812 11.671875 -24.804688 11.671875 -23.546875 C 11.671875 -22.234375 11.222656 -21.140625 10.328125 -20.265625 C 9.429688 -19.390625 8.351562 -18.953125 7.09375 -18.953125 Z M 7.09375 -18.953125 "/></g></g></g><g fill="#008599" fill-opacity="1"><g transform="translate(215.157725, 119.686083)"><g><path d="M 14.484375 0.3125 C 12.734375 0.3125 11.09375 0.078125 9.5625 -0.390625 C 8.039062 -0.859375 6.707031 -1.550781 5.5625 -2.46875 C 4.425781 -3.394531 3.519531 -4.53125 2.84375 -5.875 C 2.164062 -7.21875 1.828125 -8.742188 1.828125 -10.453125 C 1.828125 -11.191406 1.921875 -11.914062 2.109375 -12.625 C 2.296875 -13.34375 2.570312 -13.960938 2.9375 -14.484375 C 3.300781 -15.015625 3.769531 -15.441406 4.34375 -15.765625 C 4.914062 -16.097656 5.609375 -16.265625 6.421875 -16.265625 C 7.765625 -16.265625 8.875 -15.851562 9.75 -15.03125 C 10.625 -14.21875 11.0625 -13.222656 11.0625 -12.046875 C 11.0625 -10.984375 11.316406 -10.113281 11.828125 -9.4375 C 12.335938 -8.769531 13.222656 -8.4375 14.484375 -8.4375 C 15.796875 -8.4375 16.753906 -8.925781 17.359375 -9.90625 C 17.972656 -10.882812 18.28125 -12.085938 18.28125 -13.515625 C 18.28125 -14.003906 18.207031 -14.53125 18.0625 -15.09375 C 17.925781 -15.664062 17.722656 -16.195312 17.453125 -16.6875 C 17.191406 -17.175781 16.863281 -17.570312 16.46875 -17.875 C 16.082031 -18.1875 15.628906 -18.34375 15.109375 -18.34375 C 14.941406 -18.34375 14.765625 -18.332031 14.578125 -18.3125 C 14.398438 -18.289062 14.207031 -18.28125 14 -18.28125 C 12.820312 -18.28125 11.820312 -18.726562 11 -19.625 C 10.1875 -20.519531 9.78125 -21.5625 9.78125 -22.75 C 9.78125 -23.96875 10.207031 -25.015625 11.0625 -25.890625 C 11.914062 -26.765625 12.9375 -27.203125 14.125 -27.203125 C 15.101562 -27.285156 15.847656 -27.742188 16.359375 -28.578125 C 16.867188 -29.421875 17.125 -30.429688 17.125 -31.609375 C 17.125 -32.503906 16.914062 -33.1875 16.5 -33.65625 C 16.09375 -34.125 15.585938 -34.359375 14.984375 -34.359375 C 14.367188 -34.359375 13.847656 -34.101562 13.421875 -33.59375 C 12.992188 -33.082031 12.71875 -32.335938 12.59375 -31.359375 C 12.425781 -30.097656 11.9375 -29.007812 11.125 -28.09375 C 10.3125 -27.175781 9.253906 -26.71875 7.953125 -26.71875 C 6.316406 -26.71875 5.117188 -27.242188 4.359375 -28.296875 C 3.609375 -29.359375 3.234375 -30.75 3.234375 -32.46875 C 3.234375 -34.050781 3.550781 -35.492188 4.1875 -36.796875 C 4.820312 -38.109375 5.664062 -39.234375 6.71875 -40.171875 C 7.78125 -41.109375 9.015625 -41.832031 10.421875 -42.34375 C 11.828125 -42.851562 13.304688 -43.109375 14.859375 -43.109375 C 16.484375 -43.109375 18 -42.820312 19.40625 -42.25 C 20.8125 -41.675781 22.035156 -40.867188 23.078125 -39.828125 C 24.117188 -38.796875 24.925781 -37.578125 25.5 -36.171875 C 26.070312 -34.765625 26.359375 -33.242188 26.359375 -31.609375 C 26.359375 -30.179688 26.0625 -28.734375 25.46875 -27.265625 C 24.875 -25.796875 24.023438 -24.410156 22.921875 -23.109375 C 24.347656 -22.046875 25.476562 -20.660156 26.3125 -18.953125 C 27.15625 -17.242188 27.578125 -15.453125 27.578125 -13.578125 C 27.578125 -11.410156 27.25 -9.472656 26.59375 -7.765625 C 25.945312 -6.054688 25.039062 -4.609375 23.875 -3.421875 C 22.71875 -2.242188 21.332031 -1.328125 19.71875 -0.671875 C 18.101562 -0.015625 16.359375 0.3125 14.484375 0.3125 Z M 14.484375 0.3125 "/></g></g></g><g clip-path="url(#006db93d77)"><path fill="#e1ebef" d="M 221.242188 125.917969 L 438.925781 125.917969 C 460.285156 125.917969 477.578125 143.203125 477.578125 165.066406 L 477.578125 290.648438 C 477.578125 312 460.285156 329.289062 438.925781 329.289062 L 437.398438 329.289062 C 429.261719 329.289062 422.140625 333.355469 417.5625 339.964844 L 401.289062 365.386719 C 397.726562 370.46875 392.132812 374.03125 385.523438 374.03125 C 378.910156 374.03125 373.316406 370.980469 369.753906 365.386719 L 357.546875 346.066406 C 350.9375 335.390625 339.238281 329.289062 327.03125 329.289062 L 220.734375 329.289062 C 199.371094 329.289062 182.078125 312 182.078125 290.648438 L 182.078125 165.066406 C 182.589844 143.203125 199.878906 125.917969 221.242188 125.917969 Z M 221.242188 125.917969 " fill-opacity="1" fill-rule="nonzero"/></g><g clip-path="url(#51b0c2118b)"><path fill="#686c6d" d="M 221.40625 125.847656 L 439.089844 125.847656 C 460.449219 125.847656 477.742188 143.144531 477.742188 164.511719 L 477.742188 290.667969 C 477.742188 312.035156 460.449219 329.332031 439.089844 329.332031 L 437.5625 329.332031 C 429.425781 329.332031 422.304688 333.402344 417.726562 340.015625 L 401.453125 365.449219 C 397.890625 370.539062 392.296875 374.097656 385.6875 374.097656 C 379.074219 374.097656 373.480469 371.046875 369.917969 365.449219 L 357.710938 346.121094 C 351.101562 335.4375 339.402344 329.332031 327.195312 329.332031 L 220.898438 329.332031 C 199.535156 329.332031 182.242188 312.035156 182.242188 290.667969 L 182.242188 164.511719 C 182.753906 143.144531 200.042969 125.847656 221.40625 125.847656 Z M 192.925781 290.667969 C 192.925781 306.441406 205.640625 319.15625 221.40625 319.15625 L 327.703125 319.15625 C 343.472656 319.15625 358.222656 327.296875 366.867188 340.523438 L 379.074219 359.855469 C 382.125 364.941406 389.753906 364.941406 392.804688 359.855469 L 409.082031 334.417969 C 415.183594 324.753906 425.867188 319.15625 437.054688 319.15625 L 438.582031 319.15625 C 454.855469 319.15625 467.570312 306.441406 467.570312 290.667969 L 467.570312 164.511719 C 467.570312 148.738281 454.855469 136.023438 439.089844 136.023438 L 221.40625 136.023438 C 205.640625 136.023438 192.925781 148.738281 192.925781 164.511719 Z M 192.925781 290.667969 " fill-opacity="1" fill-rule="nonzero"/></g><g fill="#686c6d" fill-opacity="1"><g transform="translate(252.700805, 242.568677)"><g><path d="M 24.453125 0.609375 C 21.191406 0.609375 18.234375 0.140625 15.578125 -0.796875 C 12.929688 -1.734375 10.648438 -3.117188 8.734375 -4.953125 C 6.828125 -6.785156 5.351562 -9.054688 4.3125 -11.765625 C 3.269531 -14.472656 2.75 -17.582031 2.75 -21.09375 C 2.75 -24.03125 3.15625 -26.84375 3.96875 -29.53125 C 4.789062 -32.21875 5.992188 -34.585938 7.578125 -36.640625 C 9.171875 -38.703125 11.117188 -40.34375 13.421875 -41.5625 C 15.722656 -42.789062 18.363281 -43.40625 21.34375 -43.40625 C 23.007812 -43.40625 24.546875 -43.128906 25.953125 -42.578125 C 27.359375 -42.035156 28.5625 -41.273438 29.5625 -40.296875 C 30.5625 -39.316406 31.34375 -38.171875 31.90625 -36.859375 C 32.476562 -35.554688 32.765625 -34.15625 32.765625 -32.65625 C 32.765625 -31.34375 32.613281 -30.113281 32.3125 -28.96875 C 32.007812 -27.832031 31.5625 -26.816406 30.96875 -25.921875 C 30.375 -25.023438 29.660156 -24.320312 28.828125 -23.8125 C 27.992188 -23.300781 27.066406 -23.046875 26.046875 -23.046875 C 24.742188 -23.046875 23.644531 -23.484375 22.75 -24.359375 C 21.851562 -25.234375 21.40625 -26.328125 21.40625 -27.640625 C 21.40625 -28.128906 21.492188 -28.597656 21.671875 -29.046875 C 21.859375 -29.492188 22.0625 -29.929688 22.28125 -30.359375 C 22.507812 -30.785156 22.710938 -31.191406 22.890625 -31.578125 C 23.078125 -31.960938 23.171875 -32.335938 23.171875 -32.703125 C 23.171875 -33.234375 22.957031 -33.703125 22.53125 -34.109375 C 22.101562 -34.523438 21.441406 -34.734375 20.546875 -34.734375 C 19.316406 -34.734375 18.179688 -34.375 17.140625 -33.65625 C 16.109375 -32.945312 15.210938 -31.976562 14.453125 -30.75 C 13.703125 -29.53125 13.113281 -28.101562 12.6875 -26.46875 C 12.257812 -24.84375 12.046875 -23.113281 12.046875 -21.28125 C 12.046875 -19.40625 12.3125 -17.648438 12.84375 -16.015625 C 13.375 -14.390625 14.175781 -12.972656 15.25 -11.765625 C 16.332031 -10.566406 17.707031 -9.617188 19.375 -8.921875 C 21.050781 -8.234375 23.03125 -7.890625 25.3125 -7.890625 C 26.90625 -7.890625 28.34375 -8.09375 29.625 -8.5 C 30.90625 -8.90625 32.015625 -9.429688 32.953125 -10.078125 C 33.890625 -10.734375 34.671875 -11.488281 35.296875 -12.34375 C 35.929688 -13.207031 36.414062 -14.066406 36.75 -14.921875 C 37.03125 -15.648438 37.554688 -16.269531 38.328125 -16.78125 C 39.109375 -17.289062 39.96875 -17.546875 40.90625 -17.546875 C 42.207031 -17.546875 43.316406 -17.085938 44.234375 -16.171875 C 45.148438 -15.253906 45.609375 -14.1875 45.609375 -12.96875 C 45.609375 -12.476562 45.507812 -11.925781 45.3125 -11.3125 C 44.695312 -9.632812 43.796875 -8.070312 42.609375 -6.625 C 41.429688 -5.1875 39.960938 -3.9375 38.203125 -2.875 C 36.453125 -1.8125 34.4375 -0.960938 32.15625 -0.328125 C 29.875 0.296875 27.304688 0.609375 24.453125 0.609375 Z M 24.453125 0.609375 "/></g></g></g><g fill="#686c6d" fill-opacity="1"><g transform="translate(286.081163, 242.568677)"><g><path d="M 32.03125 0.421875 C 30.320312 0.421875 28.828125 0.160156 27.546875 -0.359375 C 26.265625 -0.890625 25.171875 -1.625 24.265625 -2.5625 C 23.367188 -3.5 22.695312 -4.617188 22.25 -5.921875 C 21.800781 -7.234375 21.578125 -8.660156 21.578125 -10.203125 C 21.578125 -11.023438 21.609375 -11.882812 21.671875 -12.78125 C 21.734375 -13.675781 21.816406 -14.519531 21.921875 -15.3125 C 22.023438 -16.113281 22.101562 -16.804688 22.15625 -17.390625 C 22.21875 -17.984375 22.25 -18.382812 22.25 -18.59375 C 22.25 -18.914062 22.132812 -19.195312 21.90625 -19.4375 C 21.6875 -19.6875 21.414062 -19.8125 21.09375 -19.8125 C 20.394531 -19.8125 19.660156 -19.503906 18.890625 -18.890625 C 18.117188 -18.273438 17.375 -17.316406 16.65625 -16.015625 C 15.945312 -14.710938 15.273438 -13 14.640625 -10.875 C 14.015625 -8.757812 13.492188 -6.210938 13.078125 -3.234375 C 12.921875 -2.140625 12.394531 -1.265625 11.5 -0.609375 C 10.601562 0.0351562 9.625 0.359375 8.5625 0.359375 C 7.945312 0.359375 7.363281 0.238281 6.8125 0 C 6.257812 -0.238281 5.769531 -0.570312 5.34375 -1 C 4.914062 -1.4375 4.578125 -1.925781 4.328125 -2.46875 C 4.085938 -3.019531 3.96875 -3.625 3.96875 -4.28125 L 4.03125 -41.203125 C 4.03125 -42.515625 4.46875 -43.617188 5.34375 -44.515625 C 6.226562 -45.410156 7.320312 -45.859375 8.625 -45.859375 C 9.925781 -45.859375 11.015625 -45.410156 11.890625 -44.515625 C 12.765625 -43.617188 13.203125 -42.515625 13.203125 -41.203125 L 13.203125 -22.859375 C 14.585938 -24.773438 16.15625 -26.203125 17.90625 -27.140625 C 19.664062 -28.078125 21.398438 -28.546875 23.109375 -28.546875 C 25.921875 -28.546875 28.0625 -27.789062 29.53125 -26.28125 C 31 -24.78125 31.734375 -22.539062 31.734375 -19.5625 C 31.734375 -18.257812 31.585938 -16.945312 31.296875 -15.625 C 31.015625 -14.300781 30.875 -12.800781 30.875 -11.125 C 30.875 -10.4375 31.046875 -9.859375 31.390625 -9.390625 C 31.742188 -8.921875 32.265625 -8.6875 32.953125 -8.6875 C 34.015625 -8.6875 34.984375 -9.179688 35.859375 -10.171875 C 36.734375 -11.171875 37.617188 -12.851562 38.515625 -15.21875 C 38.804688 -15.914062 39.335938 -16.53125 40.109375 -17.0625 C 40.878906 -17.59375 41.734375 -17.859375 42.671875 -17.859375 C 44.140625 -17.859375 45.289062 -17.378906 46.125 -16.421875 C 46.96875 -15.460938 47.390625 -14.390625 47.390625 -13.203125 C 47.390625 -12.671875 47.285156 -12.140625 47.078125 -11.609375 C 46.503906 -10.109375 45.75 -8.632812 44.8125 -7.1875 C 43.875 -5.738281 42.773438 -4.453125 41.515625 -3.328125 C 40.253906 -2.210938 38.828125 -1.304688 37.234375 -0.609375 C 35.640625 0.078125 33.90625 0.421875 32.03125 0.421875 Z M 32.03125 0.421875 "/></g></g></g><g fill="#686c6d" fill-opacity="1"><g transform="translate(321.234474, 242.568677)"><g><path d="M 14.921875 0.3125 C 13.128906 0.3125 11.519531 -0.015625 10.09375 -0.671875 C 8.664062 -1.328125 7.453125 -2.210938 6.453125 -3.328125 C 5.453125 -4.453125 4.6875 -5.773438 4.15625 -7.296875 C 3.625 -8.828125 3.359375 -10.472656 3.359375 -12.234375 C 3.359375 -14.347656 3.742188 -16.382812 4.515625 -18.34375 C 5.296875 -20.300781 6.398438 -22.03125 7.828125 -23.53125 C 9.253906 -25.039062 10.960938 -26.242188 12.953125 -27.140625 C 14.953125 -28.035156 17.15625 -28.484375 19.5625 -28.484375 C 21.070312 -28.484375 22.53125 -28.28125 23.9375 -27.875 C 25.34375 -27.46875 26.582031 -26.867188 27.65625 -26.078125 C 28.738281 -25.285156 29.609375 -24.316406 30.265625 -23.171875 C 30.921875 -22.023438 31.25 -20.722656 31.25 -19.265625 C 31.25 -17.835938 31.164062 -16.679688 31 -15.796875 C 30.832031 -14.921875 30.75 -13.992188 30.75 -13.015625 C 30.75 -11.835938 31.046875 -10.835938 31.640625 -10.015625 C 32.234375 -9.203125 32.957031 -8.796875 33.8125 -8.796875 C 34.945312 -8.796875 35.910156 -9.242188 36.703125 -10.140625 C 37.503906 -11.046875 38.332031 -12.640625 39.1875 -14.921875 C 39.519531 -15.734375 40.082031 -16.375 40.875 -16.84375 C 41.664062 -17.3125 42.507812 -17.546875 43.40625 -17.546875 C 44.875 -17.546875 46.003906 -17.066406 46.796875 -16.109375 C 47.597656 -15.148438 48 -14.082031 48 -12.90625 C 48 -12.289062 47.914062 -11.757812 47.75 -11.3125 C 46.40625 -7.644531 44.601562 -4.789062 42.34375 -2.75 C 40.082031 -0.707031 37.28125 0.3125 33.9375 0.3125 C 32.0625 0.3125 30.304688 -0.15625 28.671875 -1.09375 C 27.046875 -2.03125 25.84375 -3.15625 25.0625 -4.46875 C 23.84375 -3.039062 22.363281 -1.882812 20.625 -1 C 18.894531 -0.125 16.992188 0.3125 14.921875 0.3125 Z M 15.78125 -8.4375 C 16.507812 -8.4375 17.1875 -8.679688 17.8125 -9.171875 C 18.445312 -9.660156 19.007812 -10.332031 19.5 -11.1875 C 19.988281 -12.039062 20.414062 -13.046875 20.78125 -14.203125 C 21.15625 -15.367188 21.460938 -16.609375 21.703125 -17.921875 L 21.703125 -18.03125 C 21.703125 -18.363281 21.519531 -18.722656 21.15625 -19.109375 C 20.789062 -19.492188 20.195312 -19.6875 19.375 -19.6875 C 18.476562 -19.6875 17.625 -19.460938 16.8125 -19.015625 C 16 -18.566406 15.285156 -17.984375 14.671875 -17.265625 C 14.054688 -16.554688 13.566406 -15.742188 13.203125 -14.828125 C 12.835938 -13.910156 12.65625 -12.984375 12.65625 -12.046875 C 12.65625 -10.859375 12.941406 -9.957031 13.515625 -9.34375 C 14.085938 -8.738281 14.84375 -8.4375 15.78125 -8.4375 Z M 15.78125 -8.4375 "/></g></g></g><g fill="#686c6d" fill-opacity="1"><g transform="translate(356.999153, 242.568677)"><g><path d="M 19.203125 0.609375 C 16.878906 0.609375 14.789062 0.191406 12.9375 -0.640625 C 11.082031 -1.472656 9.507812 -2.644531 8.21875 -4.15625 C 6.9375 -5.664062 5.957031 -7.4375 5.28125 -9.46875 C 4.613281 -11.507812 4.28125 -13.753906 4.28125 -16.203125 L 4.28125 -18.828125 L 2.8125 -18.828125 C 1.507812 -18.828125 0.410156 -19.273438 -0.484375 -20.171875 C -1.378906 -21.066406 -1.828125 -22.171875 -1.828125 -23.484375 C -1.828125 -24.785156 -1.378906 -25.882812 -0.484375 -26.78125 C 0.410156 -27.675781 1.507812 -28.125 2.8125 -28.125 L 4.28125 -28.125 L 4.28125 -34.96875 C 4.28125 -36.269531 4.726562 -37.367188 5.625 -38.265625 C 6.519531 -39.171875 7.617188 -39.625 8.921875 -39.625 C 10.234375 -39.625 11.335938 -39.171875 12.234375 -38.265625 C 13.128906 -37.367188 13.578125 -36.269531 13.578125 -34.96875 L 13.578125 -28.125 L 18.28125 -28.125 C 19.539062 -28.125 20.617188 -27.675781 21.515625 -26.78125 C 22.410156 -25.882812 22.859375 -24.785156 22.859375 -23.484375 C 22.859375 -22.171875 22.410156 -21.066406 21.515625 -20.171875 C 20.617188 -19.273438 19.539062 -18.828125 18.28125 -18.828125 L 13.578125 -18.828125 L 13.578125 -16.203125 C 13.578125 -13.710938 14.101562 -11.828125 15.15625 -10.546875 C 16.21875 -9.265625 17.707031 -8.625 19.625 -8.625 C 20.195312 -8.625 20.804688 -8.734375 21.453125 -8.953125 C 22.109375 -9.179688 22.769531 -9.5625 23.4375 -10.09375 C 24.113281 -10.625 24.757812 -11.335938 25.375 -12.234375 C 25.988281 -13.128906 26.539062 -14.226562 27.03125 -15.53125 C 27.351562 -16.34375 27.929688 -16.984375 28.765625 -17.453125 C 29.597656 -17.921875 30.40625 -18.15625 31.1875 -18.15625 C 32.6875 -18.15625 33.84375 -17.6875 34.65625 -16.75 C 35.476562 -15.8125 35.890625 -14.753906 35.890625 -13.578125 C 35.890625 -13.085938 35.785156 -12.535156 35.578125 -11.921875 C 34.890625 -10.085938 34.015625 -8.394531 32.953125 -6.84375 C 31.890625 -5.300781 30.664062 -3.976562 29.28125 -2.875 C 27.894531 -1.769531 26.359375 -0.910156 24.671875 -0.296875 C 22.984375 0.304688 21.160156 0.609375 19.203125 0.609375 Z M 19.203125 0.609375 "/></g></g></g></svg>