<svg xmlns="http://www.w3.org/2000/svg" xmlns:xlink="http://www.w3.org/1999/xlink" viewBox="0,0,256,256" width="100px" height="100px" fill-rule="nonzero"><g transform="translate(10,10) scale(0.92188,0.92188)"><g fill-opacity="0" fill="#dddddd" fill-rule="nonzero" stroke="none" stroke-width="1" stroke-linecap="butt" stroke-linejoin="miter" stroke-miterlimit="10" stroke-dasharray="" stroke-dashoffset="0" font-family="none" font-weight="none" font-size="none" text-anchor="none" style="mix-blend-mode: normal"><path d="M-10.84746,266.84746v-277.69492h277.69492v277.69492z" id="bgRectangle"></path></g><g fill="none" fill-rule="nonzero" stroke="none" stroke-width="1" stroke-linecap="butt" stroke-linejoin="miter" stroke-miterlimit="10" stroke-dasharray="" stroke-dashoffset="0" font-family="none" font-weight="none" font-size="none" text-anchor="none" style="mix-blend-mode: normal"><g transform="scale(2,2)"><path d="M119.8,105.3l-19.8,-51.3l-4.3,4.3c-3.7,3.7 -8.6,5.7 -13.7,5.7c-5.1,0 -10,-2 -13.7,-5.7l-4.3,-4.3l-19.8,51.3c-1.3,3.3 -1.2,6.6 -0.1,9.5l-27.6,-6.1c-4.8,-1.1 -9.4,2.6 -9.4,7.5c0,4.3 3.5,7.7 7.7,7.7h92.2c9.6,0.1 16.3,-9.6 12.8,-18.6z" fill-opacity="0" fill="#ffffff"></path><path d="M72,81c-1.65685,0 -3,1.34315 -3,3c0,1.65685 1.34315,3 3,3c1.65685,0 3,-1.34315 3,-3c0,-1.65685 -1.34315,-3 -3,-3zM92,81c-1.65685,0 -3,1.34315 -3,3c0,1.65685 1.34315,3 3,3c1.65685,0 3,-1.34315 3,-3c0,-1.65685 -1.34315,-3 -3,-3z" fill="#000000"></path><path d="M122.6,104.3l-19.8,-51.3c-0.4,-0.9 -1.2,-1.6 -2.2,-1.9c-1,-0.2 -2,0.1 -2.7,0.8l-4.3,4.3c-3.1,3.1 -7.2,4.8 -11.6,4.8c-4.4,0 -8.5,-1.7 -11.5,-4.8l-4.3,-4.3c-0.7,-0.7 -1.8,-1 -2.7,-0.8c-1,0.2 -1.8,0.9 -2.2,1.9l-19.8,51.3c-2,5.1 -1.3,10.9 1.8,15.5c0.3,0.4 0.6,0.9 1,1.3h-29.6c-2.6,0 -4.7,-2.1 -4.7,-4.7c0,-1.4 0.6,-2.8 1.8,-3.7c1.1,-0.9 2.6,-1.2 4,-0.9l14.5,3.2c1.6,0.4 3.2,-0.7 3.6,-2.3c0.4,-1.6 -0.7,-3.2 -2.3,-3.6l-14.4,-3.2c-3.2,-0.7 -6.5,0 -9.1,2.1c-2.6,2 -4,5.1 -4,8.4c0,5.9 4.8,10.7 10.7,10.7h42.2c1.7,0 3,-1.3 3,-3c0,-1.7 -1.3,-3 -3,-3c-3.6,0 -6.8,-1.7 -8.8,-4.7c-2,-3 -2.5,-6.6 -1.2,-9.9l18.1,-47l1.1,1.1c4.2,4.1 9.8,6.4 15.8,6.4c6,0 11.6,-2.3 15.8,-6.5l1.1,-1.1l18.1,47c1.3,3.3 0.9,7 -1.2,9.9c-2.1,2.9 -5.3,4.7 -8.8,4.7h-7.4c-1.3,-4.3 -5.3,-7.5 -10.1,-7.5c-2.9,0 -5.6,1.2 -7.5,3.2c0,0 0,0 -0.1,-0.1c-2,-2 -4.6,-3.1 -7.4,-3.1c-2.8,0 -5.4,1.1 -7.4,3.1c-2,2 -3.1,4.6 -3.1,7.4c0,1.7 1.3,3 3,3v0c1.7,0 3,-1.3 3,-3c0,-1.2 0.5,-2.3 1.3,-3.2c0.8,-0.9 2,-1.3 3.2,-1.3c1.2,0 2.3,0.5 3.2,1.3c0.8,0.8 1.3,1.9 1.3,3.1v0.1c0,0.1 0,0.1 0,0.2c0.1,1.6 1.5,2.9 3.1,2.8c1.6,0 2.9,-1.4 2.9,-3v-0.1c0,-2.4 2,-4.4 4.5,-4.4c2.5,0 4.5,2 4.5,4.5c0,1.7 1.3,3 3,3h10c5.5,0 10.7,-2.7 13.8,-7.3c3.1,-4.5 3.8,-10.3 1.8,-15.4z" fill="#000000"></path></g></g></g></svg>